<svg width="40" height="40" viewBox="0 0 40 40" fill="none" xmlns="http://www.w3.org/2000/svg">
<rect width="40" height="40" rx="10" fill="#F5F6F8"/>
<rect x="0.5" y="0.5" width="39" height="39" rx="9.5" stroke="#111827" stroke-opacity="0.1"/>
<path opacity="0.3" d="M28.4103 16.7385L26.4851 18.6727L21.3272 13.5148L23.2614 11.5896C23.4285 11.4162 23.6288 11.2784 23.8503 11.1842C24.0719 11.09 24.3101 11.0415 24.5509 11.0415C24.7916 11.0415 25.0299 11.09 25.2514 11.1842C25.473 11.2784 25.6733 11.4162 25.8404 11.5896L28.4103 14.1596C28.5837 14.3266 28.7215 14.5269 28.8157 14.7485C28.9099 14.97 28.9584 15.2083 28.9584 15.449C28.9584 15.6898 28.9099 15.928 28.8157 16.1496C28.7215 16.3711 28.5837 16.5714 28.4103 16.7385ZM12.5516 28.8989L18.1035 27.0543L12.9456 21.8964L11.101 27.4483C11.0334 27.6504 11.0234 27.8673 11.0723 28.0747C11.1211 28.2821 11.2268 28.4718 11.3775 28.6225C11.5281 28.7731 11.7178 28.8788 11.9252 28.9277C12.1326 28.9765 12.3496 28.9666 12.5516 28.8989Z" fill="#111827"/>
<path d="M14.2351 28.3351L12.5516 28.8992C12.3496 28.9669 12.1326 28.9768 11.9252 28.928C11.7178 28.8791 11.5281 28.7734 11.3775 28.6228C11.2268 28.4721 11.1211 28.2824 11.0723 28.075C11.0234 27.8676 11.0334 27.6507 11.101 27.4486L11.6651 25.7651L14.2351 28.3351ZM12.9456 21.8967L18.1035 27.0546L26.4851 18.673L21.3272 13.5151L12.9456 21.8967Z" fill="#111827"/>
</svg>
