<svg width="16" height="16" viewBox="0 0 16 16" fill="none" xmlns="http://www.w3.org/2000/svg">
<path d="M8.00032 1.43286C8.1501 1.433 8.29291 1.53131 8.47395 1.80005C8.65355 2.06672 8.84985 2.47027 9.11848 3.02075L10.6097 6.07642C10.7502 6.36434 10.8589 6.58686 10.9593 6.75024C11.0596 6.91349 11.1602 7.03186 11.2913 7.0979C11.4272 7.16626 11.5784 7.1907 11.7269 7.16724C11.8711 7.14439 11.9977 7.05999 12.1341 6.93384C12.2705 6.80769 12.4296 6.62757 12.6341 6.39478C13.0339 5.93967 13.3285 5.60402 13.5628 5.38501C13.6797 5.27573 13.7775 5.19962 13.8616 5.15259C13.9452 5.1059 14.0091 5.09134 14.0618 5.09595C14.2046 5.10849 14.3413 5.1813 14.4437 5.30493C14.5272 5.40586 14.5695 5.59653 14.5667 5.94946C14.564 6.29579 14.5195 6.76905 14.4593 7.40845L14.306 9.03149C14.1799 10.3714 14.0862 11.3684 13.9261 12.1311C13.7664 12.8919 13.5434 13.4066 13.1683 13.7903C12.7947 14.1724 12.3259 14.3681 11.6497 14.467C10.9693 14.5666 10.0912 14.5667 8.90657 14.5667H7.09309C5.90877 14.5667 5.03128 14.5665 4.35091 14.467C3.67451 14.3681 3.20508 14.1726 2.83138 13.7903C2.45628 13.4066 2.23325 12.8919 2.07356 12.1311C1.91351 11.3684 1.81979 10.3714 1.69368 9.03149L1.54036 7.40845C1.48018 6.76905 1.43662 6.29579 1.43391 5.94946C1.43117 5.59666 1.47251 5.40589 1.55598 5.30493C1.65828 5.18134 1.79512 5.10855 1.93782 5.09595C1.99056 5.09131 2.05533 5.10582 2.13899 5.15259C2.22301 5.19962 2.32019 5.27598 2.43684 5.38501C2.67113 5.60403 2.96674 5.93965 3.36653 6.39478C3.57083 6.62735 3.72921 6.80775 3.86555 6.93384C4.00207 7.06006 4.12941 7.14442 4.27376 7.16724C4.42204 7.19057 4.57265 7.16616 4.70833 7.0979C4.83949 7.0319 4.94003 6.91352 5.04036 6.75024C5.14073 6.58688 5.24948 6.36431 5.38997 6.07642L6.88118 3.02075C7.14992 2.47007 7.34704 2.06672 7.52669 1.80005C7.70786 1.53111 7.85042 1.43286 8.00032 1.43286Z" fill="url(#paint0_linear_4641_227045)" stroke="#FFCA7B" stroke-width="0.2"/>
<path d="M8.63491 8.46599L8.56937 8.34842C8.31604 7.89397 8.18937 7.66675 8 7.66675C7.81063 7.66675 7.68396 7.89397 7.43063 8.34842L7.36509 8.466C7.2931 8.59514 7.25711 8.65971 7.20099 8.70231C7.14487 8.74491 7.07497 8.76073 6.93518 8.79236L6.80791 8.82115C6.31597 8.93246 6.07 8.98811 6.01148 9.17629C5.95296 9.36448 6.12065 9.56056 6.45602 9.95273L6.54278 10.0542C6.63809 10.1656 6.68574 10.2214 6.70717 10.2903C6.72861 10.3592 6.72141 10.4336 6.707 10.5823L6.69388 10.7176C6.64318 11.2409 6.61782 11.5025 6.77103 11.6188C6.92423 11.7351 7.15453 11.6291 7.61513 11.417L7.61513 11.417L7.7343 11.3621L7.73431 11.3621C7.86519 11.3018 7.93063 11.2717 8 11.2717C8.06937 11.2717 8.13481 11.3019 8.2657 11.3621L8.2657 11.3621L8.38487 11.417C8.84546 11.6291 9.07576 11.7351 9.22897 11.6188C9.38218 11.5025 9.35682 11.2409 9.30612 10.7176L9.293 10.5823C9.27859 10.4336 9.27139 10.3592 9.29283 10.2903C9.31426 10.2214 9.36191 10.1656 9.45722 10.0542L9.54398 9.95273L9.54398 9.95273C9.87935 9.56056 10.047 9.36448 9.98852 9.17629C9.93 8.98811 9.68403 8.93246 9.19209 8.82115L9.06482 8.79236C8.92503 8.76073 8.85513 8.74491 8.79901 8.70231C8.74289 8.65971 8.7069 8.59514 8.63491 8.46599Z" fill="url(#paint1_linear_4641_227045)"/>
<defs>
<linearGradient id="paint0_linear_4641_227045" x1="7.99999" y1="14.6666" x2="7.99999" y2="1.33325" gradientUnits="userSpaceOnUse">
<stop stop-color="#FFE187"/>
<stop offset="1" stop-color="#FFF8E0"/>
</linearGradient>
<linearGradient id="paint1_linear_4641_227045" x1="8.00008" y1="11.6669" x2="8.00008" y2="7.66742" gradientUnits="userSpaceOnUse">
<stop stop-color="#FD7600"/>
<stop offset="0.71" stop-color="#FDBF30"/>
</linearGradient>
</defs>
</svg>
