<svg width="20" height="20" viewBox="0 0 20 20" fill="none" xmlns="http://www.w3.org/2000/svg">
<path fill-rule="evenodd" clip-rule="evenodd" d="M14.5833 2.2915C14.9285 2.2915 15.2083 2.57133 15.2083 2.9165V4.7915H17.0833C17.4285 4.7915 17.7083 5.07133 17.7083 5.4165C17.7083 5.76168 17.4285 6.0415 17.0833 6.0415H15.2083V7.9165C15.2083 8.26168 14.9285 8.5415 14.5833 8.5415C14.2381 8.5415 13.9583 8.26168 13.9583 7.9165V6.0415H12.0833C11.7381 6.0415 11.4583 5.76168 11.4583 5.4165C11.4583 5.07133 11.7381 4.7915 12.0833 4.7915H13.9583V2.9165C13.9583 2.57133 14.2381 2.2915 14.5833 2.2915Z" fill="#1F6FEB"/>
<path d="M1.66669 5.4165C1.66669 3.64874 1.66669 2.76485 2.21586 2.21568C2.76504 1.6665 3.64892 1.6665 5.41669 1.6665C7.18445 1.6665 8.06834 1.6665 8.61751 2.21568C9.16669 2.76485 9.16669 3.64874 9.16669 5.4165C9.16669 7.18427 9.16669 8.06815 8.61751 8.61733C8.06834 9.1665 7.18445 9.1665 5.41669 9.1665C3.64892 9.1665 2.76504 9.1665 2.21586 8.61733C1.66669 8.06815 1.66669 7.18427 1.66669 5.4165Z" fill="#1F6FEB"/>
<path d="M10.8333 14.5835C10.8333 12.8157 10.8333 11.9318 11.3825 11.3827C11.9317 10.8335 12.8155 10.8335 14.5833 10.8335C16.3511 10.8335 17.235 10.8335 17.7841 11.3827C18.3333 11.9318 18.3333 12.8157 18.3333 14.5835C18.3333 16.3513 18.3333 17.2351 17.7841 17.7843C17.235 18.3335 16.3511 18.3335 14.5833 18.3335C12.8155 18.3335 11.9317 18.3335 11.3825 17.7843C10.8333 17.2351 10.8333 16.3513 10.8333 14.5835Z" fill="#1F6FEB"/>
<path opacity="0.3" d="M1.66669 14.5835C1.66669 12.8157 1.66669 11.9318 2.21586 11.3827C2.76504 10.8335 3.64892 10.8335 5.41669 10.8335C7.18445 10.8335 8.06834 10.8335 8.61751 11.3827C9.16669 11.9318 9.16669 12.8157 9.16669 14.5835C9.16669 16.3513 9.16669 17.2351 8.61751 17.7843C8.06834 18.3335 7.18445 18.3335 5.41669 18.3335C3.64892 18.3335 2.76504 18.3335 2.21586 17.7843C1.66669 17.2351 1.66669 16.3513 1.66669 14.5835Z" fill="#1F6FEB"/>
</svg>
