<svg width="58" height="58" viewBox="0 0 58 58" fill="none" xmlns="http://www.w3.org/2000/svg">
<rect x="0.5" y="0.5" width="57" height="57" rx="11.5" fill="#F3EDFF"/>
<rect x="0.5" y="0.5" width="57" height="57" rx="11.5" stroke="#EDE4FF"/>
<path opacity="0.3" d="M37.1968 40.1663H21.5522C21.1984 40.1638 20.8539 40.0526 20.5654 39.8478C20.2769 39.6429 20.0584 39.3544 19.9393 39.0212L13.4879 20.2799C13.3582 19.9516 13.3397 19.5898 13.4353 19.25C13.531 18.9102 13.7355 18.6111 14.0175 18.3987C14.2994 18.1863 14.6433 18.0723 14.9963 18.0742C15.3493 18.076 15.692 18.1937 15.9717 18.409L22.4231 23.054C22.6013 23.1854 22.8075 23.2738 23.0255 23.3122C23.2436 23.3507 23.4675 23.3382 23.6799 23.2757C23.8923 23.2133 24.0874 23.1025 24.2499 22.9521C24.4124 22.8017 24.5379 22.6158 24.6166 22.4089L27.8423 13.9898C27.9351 13.6481 28.1378 13.3465 28.4191 13.1315C28.7004 12.9164 29.0446 12.7999 29.3987 12.7999C29.7527 12.7999 30.097 12.9164 30.3782 13.1315C30.6595 13.3465 30.8622 13.6481 30.9551 13.9898L34.084 22.4573C34.162 22.6668 34.2879 22.8552 34.4516 23.0075C34.6153 23.1597 34.8123 23.2716 35.0269 23.3343C35.2415 23.397 35.4678 23.4086 35.6877 23.3684C35.9076 23.3281 36.1151 23.237 36.2936 23.1024L42.9547 18.151C43.2316 17.9105 43.5822 17.7716 43.9487 17.7572C44.3152 17.7427 44.6756 17.8536 44.9706 18.0716C45.2656 18.2895 45.4774 18.6015 45.5713 18.956C45.6651 19.3106 45.6354 19.6865 45.4868 20.0219L38.8097 39.0212C38.7061 39.3641 38.4914 39.6627 38.1994 39.87C37.9074 40.0774 37.5546 40.1816 37.1968 40.1663Z" fill="#7239EA"/>
<path d="M37.7131 42.7631C38.034 42.7631 38.3418 42.8907 38.5686 43.1176C38.7954 43.3444 38.9231 43.6522 38.9231 43.973C38.923 44.2937 38.7954 44.6017 38.5686 44.8285C38.3418 45.0552 38.0339 45.182 37.7131 45.182H21.2141C20.8934 45.182 20.5855 45.0552 20.3586 44.8285C20.1319 44.6017 20.0042 44.2937 20.0042 43.973C20.0042 43.6522 20.1318 43.3444 20.3586 43.1176C20.5855 42.8907 20.8933 42.7631 21.2141 42.7631H37.7131ZM33.4866 30.9252C33.8074 30.9252 34.1152 31.0528 34.342 31.2797C34.5688 31.5065 34.6965 31.8144 34.6965 32.1351C34.6964 32.4558 34.5688 32.7638 34.342 32.9906C34.1152 33.2174 33.8073 33.3441 33.4866 33.3441H25.4221C25.1014 33.3441 24.7935 33.2174 24.5667 32.9906C24.3399 32.7638 24.2132 32.4558 24.2131 32.1351C24.2131 31.8144 24.34 31.5065 24.5667 31.2797C24.7935 31.0529 25.1014 30.9252 25.4221 30.9252H33.4866Z" fill="#7239EA"/>
</svg>
