<svg width="36" height="36" viewBox="0 0 36 36" fill="none" xmlns="http://www.w3.org/2000/svg">
<rect x="0.5" y="0.5" width="35" height="35" rx="17.5" fill="#F9F9F9"/>
<rect x="0.5" y="0.5" width="35" height="35" rx="17.5" stroke="#DBDFE9"/>
<g clip-path="url(#clip0_1501_184827)">
<path opacity="0.1" d="M18.0039 9.9375C16.4093 9.9375 14.8505 10.4104 13.5246 11.2963C12.1988 12.1822 11.1654 13.4414 10.5551 14.9146C9.9449 16.3878 9.78524 18.0089 10.0963 19.5729C10.4074 21.1369 11.1753 22.5735 12.3029 23.701C13.4304 24.8286 14.867 25.5965 16.431 25.9076C17.995 26.2187 19.6161 26.059 21.0893 25.4488C22.5625 24.8385 23.8217 23.8052 24.7076 22.4793C25.5936 21.1534 26.0664 19.5946 26.0664 18C26.0664 15.8617 25.217 13.811 23.705 12.299C22.1929 10.7869 20.1422 9.9375 18.0039 9.9375Z" fill="#78829D"/>
<path d="M18 9.9375C16.4054 9.9375 14.8466 10.4104 13.5207 11.2963C12.1948 12.1822 11.1615 13.4414 10.5512 14.9146C9.94099 16.3878 9.78133 18.0089 10.0924 19.5729C10.4035 21.1369 11.1714 22.5735 12.299 23.701C13.4265 24.8286 14.8631 25.5965 16.4271 25.9076C17.9911 26.2187 19.6122 26.059 21.0854 25.4488C22.5586 24.8385 23.8178 23.8052 24.7037 22.4793C25.5896 21.1534 26.0625 19.5946 26.0625 18C26.0625 15.8617 25.2131 13.811 23.7011 12.299C22.189 10.7869 20.1383 9.9375 18 9.9375ZM18 24.9375C16.6243 24.9375 15.2795 24.5294 14.1358 23.7647C12.9922 23.0001 12.1011 21.9134 11.5753 20.6421C11.0495 19.3709 10.9127 17.9722 11.1822 16.6231C11.4517 15.274 12.1153 14.0353 13.0892 13.0635C14.063 12.0918 15.3032 11.4308 16.6529 11.1643C18.0025 10.8977 19.4009 11.0375 20.671 11.566C21.9412 12.0946 23.026 12.988 23.7881 14.1333C24.5502 15.2786 24.9555 16.6243 24.9525 18C24.9505 19.8433 24.2174 21.6106 22.914 22.914C21.6106 24.2174 19.8433 24.9505 18 24.9525V24.9375ZM21.75 18C21.75 18.1472 21.6915 18.2884 21.5874 18.3924C21.4834 18.4965 21.3422 18.555 21.195 18.555H18C17.8528 18.555 17.7116 18.4965 17.6076 18.3924C17.5035 18.2884 17.445 18.1472 17.445 18V13.44C17.445 13.2928 17.5035 13.1516 17.6076 13.0476C17.7116 12.9435 17.8528 12.885 18 12.885C18.1472 12.885 18.2884 12.9435 18.3924 13.0476C18.4965 13.1516 18.555 13.2928 18.555 13.44V17.445H21.2175C21.3608 17.4508 21.4962 17.5118 21.5955 17.6153C21.6947 17.7188 21.7501 17.8566 21.75 18Z" fill="#78829D"/>
</g>
<defs>
<clipPath id="clip0_1501_184827">
<rect width="18" height="18" fill="white" transform="translate(9 9)"/>
</clipPath>
</defs>
</svg>
