<svg width="40" height="40" viewBox="0 0 40 40" fill="none" xmlns="http://www.w3.org/2000/svg">
<rect width="40" height="40" rx="10" fill="#FFF9FA"/>
<rect x="0.5" y="0.5" width="39" height="39" rx="9.5" stroke="#D81A48" stroke-opacity="0.1"/>
<path opacity="0.3" d="M23.5435 29.0837L16.6228 29.1662C16.0233 29.1747 15.4433 28.9534 15.0018 28.5477C14.5603 28.142 14.2908 27.5827 14.2487 26.9846L13.5796 17.4149C13.5694 17.2749 13.5885 17.1343 13.6357 17.0021C13.6829 16.8699 13.7572 16.749 13.8539 16.6472C13.9505 16.5454 14.0674 16.4648 14.1969 16.4108C14.3265 16.3567 14.4659 16.3303 14.6062 16.3332H25.386C25.5255 16.3304 25.6641 16.3566 25.793 16.4101C25.9219 16.4636 26.0382 16.5433 26.1347 16.6441C26.2312 16.7449 26.3058 16.8646 26.3536 16.9957C26.4014 17.1268 26.4215 17.2664 26.4126 17.4057L25.8718 26.8655C25.8391 27.4622 25.58 28.0239 25.1474 28.4361C24.7147 28.8483 24.1411 29.08 23.5435 29.0837Z" fill="#D81A48"/>
<path fill-rule="evenodd" clip-rule="evenodd" d="M21.3252 23.4829C21.5075 23.4829 21.6827 23.5552 21.8116 23.6841C21.9405 23.813 22.0127 23.9881 22.0127 24.1704C22.0127 24.3527 21.9405 24.5278 21.8116 24.6567C21.6827 24.7857 21.5076 24.8579 21.3252 24.8579H18.667C18.4847 24.8579 18.3096 24.7856 18.1807 24.6567C18.0518 24.5278 17.9795 24.3527 17.9795 24.1704C17.9796 23.9881 18.0518 23.813 18.1807 23.6841C18.3096 23.5552 18.4848 23.4829 18.667 23.4829H21.3252ZM22.0401 20.0913C22.2224 20.0913 22.3975 20.1645 22.5264 20.2935C22.6552 20.4223 22.7275 20.5967 22.7276 20.7788C22.7276 20.9611 22.6553 21.1362 22.5264 21.2651C22.3975 21.3941 22.2224 21.4663 22.0401 21.4663H17.9522C17.7699 21.4663 17.5948 21.3941 17.4659 21.2651C17.3371 21.1362 17.2647 20.961 17.2647 20.7788C17.2648 20.5968 17.3372 20.4223 17.4659 20.2935C17.5948 20.1645 17.7699 20.0913 17.9522 20.0913H22.0401ZM21.628 10.8335C22.0281 10.8351 22.415 10.9761 22.7227 11.2319C23.0304 11.4878 23.24 11.8426 23.3145 12.2358L23.5694 13.7866C24.9361 13.8757 26.3004 14.0152 27.6592 14.2065C27.8287 14.2344 27.9817 14.3246 28.0879 14.4595C28.1941 14.5943 28.246 14.7639 28.2335 14.9351C28.2208 15.1063 28.1445 15.2674 28.0196 15.3853C27.8947 15.503 27.7302 15.5701 27.5586 15.5728V15.563H27.4581C22.5101 14.8826 17.492 14.8827 12.544 15.563C12.3668 15.5863 12.1874 15.5398 12.044 15.4331C11.9006 15.3264 11.8041 15.1681 11.7754 14.9917C11.7468 14.8152 11.7883 14.6344 11.8907 14.4878C11.9931 14.3413 12.1488 14.2404 12.3243 14.2065C13.6912 14.0141 15.0636 13.8737 16.4385 13.7847L16.7422 12.2271C16.8158 11.8408 17.02 11.4915 17.3204 11.2378C17.6207 10.9843 17.9987 10.8414 18.3917 10.8335H21.628Z" fill="#D81A48"/>
</svg>
